<?xml version="1.0" standalone="no"?>
<!DOCTYPE svg PUBLIC "-//W3C//DTD SVG 20010904//EN"
 "http://www.w3.org/TR/2001/REC-SVG-20010904/DTD/svg10.dtd">
<svg version="1.0" xmlns="http://www.w3.org/2000/svg"
 width="1024.000000pt" height="1024.000000pt" viewBox="0 0 1024.000000 1024.000000"
 preserveAspectRatio="xMidYMid meet">

<g transform="translate(0.000000,1024.000000) scale(0.100000,-0.100000)"
fill="#000000" stroke="none">
<path d="M4559 8876 c-100 -36 -160 -125 -167 -246 -5 -93 20 -167 75 -224 64
-66 108 -80 266 -84 l138 -4 -3 -116 -3 -116 -100 -13 c-703 -88 -1385 -463
-1820 -1003 -324 -402 -504 -822 -581 -1355 -27 -182 -24 -553 5 -742 47 -310
126 -563 266 -848 126 -259 278 -482 450 -663 l60 -63 65 15 c94 22 249 43
373 51 l107 7 -41 32 c-116 86 -317 279 -412 396 -140 172 -316 490 -392 709
-102 297 -148 640 -125 932 46 606 282 1116 706 1529 384 374 890 611 1426
669 125 14 411 14 536 0 622 -68 1230 -396 1622 -874 244 -299 425 -709 496
-1125 21 -129 30 -467 15 -611 -51 -484 -267 -961 -606 -1335 -71 -78 -223
-215 -317 -286 l-48 -36 98 -6 c146 -10 268 -25 366 -45 l88 -18 30 25 c74 62
255 299 351 460 294 488 431 1004 414 1567 -15 526 -158 968 -462 1425 -218
329 -523 610 -892 826 -307 179 -682 308 -1050 361 l-123 17 0 102 c0 56 -3
109 -6 118 -5 14 8 16 113 16 139 0 202 15 265 63 127 97 143 318 32 430 -75
75 -47 72 -644 74 -418 2 -543 0 -571 -11z"/>
<path d="M5055 7525 c-25 -24 -25 -27 -25 -190 l0 -167 29 -29 c38 -37 82 -39
116 -4 25 24 25 27 25 195 0 168 0 171 -25 195 -16 17 -35 25 -60 25 -25 0
-44 -8 -60 -25z"/>
<path d="M5056 6897 c-21 -21 -24 -35 -30 -158 -8 -160 -36 -924 -36 -991 0
-45 -1 -47 -44 -68 -55 -26 -121 -96 -149 -158 -34 -72 -31 -207 4 -283 57
-120 165 -191 303 -197 67 -4 88 0 146 22 l67 27 189 -114 c526 -316 685 -408
713 -413 67 -14 131 46 131 120 0 46 -16 61 -151 145 -210 128 -277 169 -394
243 -66 41 -172 107 -236 146 l-116 71 5 78 c3 62 0 89 -17 134 -25 66 -75
127 -134 165 l-43 27 -13 311 c-6 171 -16 428 -21 571 -6 143 -12 272 -16 287
-12 58 -113 80 -158 35z m145 -1370 c53 -36 79 -82 79 -141 -1 -141 -143 -219
-260 -142 -50 33 -74 78 -74 141 0 60 28 113 77 144 46 30 133 29 178 -2z"/>
<path d="M3023 5440 c-49 -20 -59 -96 -17 -135 26 -24 31 -25 183 -25 163 1
176 4 199 47 19 35 14 63 -17 94 l-29 29 -149 -1 c-81 0 -158 -4 -170 -9z"/>
<path d="M5083 3809 c-47 -17 -53 -43 -53 -217 l0 -164 29 -29 c39 -39 91 -40
120 -3 19 25 21 40 21 199 0 165 -1 172 -22 192 -27 24 -66 33 -95 22z"/>
<path d="M7430 3251 c0 -3 45 -163 100 -355 55 -192 98 -351 96 -353 -2 -2
-50 12 -107 31 -112 37 -287 76 -439 98 -63 8 -200 13 -405 13 -295 0 -318 -2
-467 -28 -440 -78 -768 -227 -1032 -468 l-56 -51 -70 65 c-245 227 -632 394
-1070 464 -164 26 -680 26 -855 0 -152 -23 -304 -57 -422 -95 -51 -16 -93 -28
-93 -25 0 9 181 659 189 678 8 18 4 20 -42 23 -69 4 -150 -35 -176 -86 -10
-21 -55 -161 -101 -312 -45 -151 -95 -317 -111 -368 -32 -103 -34 -127 -17
-185 16 -53 62 -100 122 -122 47 -18 56 -18 340 1 388 25 998 26 1191 0 343
-45 640 -149 748 -263 136 -144 143 -150 188 -161 74 -18 199 -24 281 -14 99
13 160 42 195 94 59 86 104 126 191 171 198 102 453 161 812 188 171 13 792 6
990 -11 248 -21 316 -23 354 -10 76 25 135 103 136 180 0 56 -227 784 -259
828 -11 16 -37 37 -58 47 -36 17 -153 37 -153 26z"/>
</g>
</svg>
